<?xml version="1.0" encoding="iso-8859-1"?>
<!-- Uploaded to: SVG Repo, www.svgrepo.com, Generator: SVG Repo Mixer Tools -->
<svg version="1.1" id="Layer_1" xmlns="http://www.w3.org/2000/svg" xmlns:xlink="http://www.w3.org/1999/xlink" 
	 viewBox="0 0 512.003 512.003" xml:space="preserve">
<path style="fill:#2E3192;" d="M352.746,503.634h39.738V305.378c0-45.199-37.146-80.956-82.344-80.956H202.201
	c-45.199,0-81.608,35.757-81.608,80.956v198.256h39.738"/>
<g>
	<polyline style="fill:#0071BC;" points="288.126,231.528 328.069,263.483 288.126,303.427 	"/>
	<polygon style="fill:#0071BC;" points="286.865,383.315 327.439,311.274 304.103,287.167 286.865,287.167 	"/>
	<polygon style="fill:#0071BC;" points="224.12,383.315 184.225,311.274 208.238,287.167 224.12,287.167 	"/>
	<polyline style="fill:#0071BC;" points="224.216,231.528 184.272,263.483 224.216,303.427 	"/>
</g>
<rect x="224.218" y="223.537" style="fill:#F2F2F2;" width="63.915" height="280.623"/>
<path style="fill:#23256E;" d="M250.133,224.422h-47.932c-45.199,0-81.608,35.757-81.608,80.956v198.256h39.712h8.392V305.378
	C168.696,260.179,204.935,224.422,250.133,224.422z"/>
<!-- Replace the head with a white circle -->
<circle cx="256" cy="120" r="60" style="fill:#FFFFFF;" />
<rect x="248.175" y="240.112" width="16.732" height="15.686"/>
<rect x="248.175" y="263.118" width="15.686" height="144.312"/>
<rect x="248.175" y="496.317" style="fill:#2E3192;" width="23.006" height="15.686"/>
<path d="M310.14,216.057H202.201c-48.52,0-88.169,38.333-89.892,86.091C112.123,307.591,112.227,512,112.227,512h48.104v-15.686
	h-32.418V359.322h24.052v-63.79h-23.368c4.872-35.962,36.011-63.79,73.604-63.79h9.191l-38.862,31.089l24.617,24.617l-22.604,22.604
	l42.258,76.066v100.785h15.686v-255.16h47.058v255.16h15.686V386.674l42.568-76.621l-22.604-22.604l24.617-24.617l-38.862-31.089
	h9.19c37.436,0,68.447,27.828,73.298,63.79h-24.417v63.79h25.098v136.992h-31.372v15.686h47.058V305.378
	C399.804,256.127,359.581,216.057,310.14,216.057z"/>
</svg>
